<svg width="24" height="24" viewBox="0 0 24 24" fill="none" xmlns="http://www.w3.org/2000/svg">
<path fill-rule="evenodd" clip-rule="evenodd" d="M7 5.25C7 4.00736 8.00736 3 9.25 3H13C13.1989 3 13.3897 3.07902 13.5303 3.21967L18.7803 8.46967C18.9209 8.61032 19 8.80109 19 9V15.75C19 16.9927 17.9927 18 16.75 18H16V18.75C16 19.9927 14.9927 21 13.75 21H6.25C5.00736 21 4 19.9927 4 18.75V8.25C4 7.00736 5.00736 6 6.25 6H7V5.25ZM7 7.5H6.25C5.83579 7.5 5.5 7.83579 5.5 8.25V18.75C5.5 19.1642 5.83579 19.5 6.25 19.5H13.75C14.1642 19.5 14.5 19.1642 14.5 18.75V18H9.25C8.00736 18 7 16.9927 7 15.75V7.5ZM9.25 4.5C8.83579 4.5 8.5 4.83579 8.5 5.25V15.75C8.5 16.1642 8.83578 16.5 9.25 16.5H16.75C17.1642 16.5 17.5 16.1642 17.5 15.75V9.75H14.5C13.2573 9.75 12.25 8.74264 12.25 7.5V4.5H9.25ZM13.75 5.56066L16.4393 8.25H14.5C14.0858 8.25 13.75 7.91421 13.75 7.5V5.56066Z" fill="#293644"/>
</svg>
